<?xml version="1.0" encoding="utf-8"?>
<!-- Generator: Adobe Illustrator 22.0.0, SVG Export Plug-In . SVG Version: 6.00 Build 0)  -->
<svg version="1.1" id="Layer_1" xmlns="http://www.w3.org/2000/svg" xmlns:xlink="http://www.w3.org/1999/xlink" x="0px" y="0px"
	 viewBox="0 0 500 500" style="enable-background:new 0 0 500 500;" xml:space="preserve">
<style type="text/css">
	.st0{fill:#AAB1BA;}
	.st1{fill:#FDDF7F;}
	.st2{fill:#ECF4F7;}
	.st3{fill:#83E1E5;}
	.st4{fill:#1C1D21;}
	.st5{fill:none;}
</style>
<g>
	<path class="st3" d="M434.58,60.695H65.42c-17.99,0-32.573,14.583-32.573,32.573v369.159c0,17.99,14.583,32.573,32.573,32.573
		H434.58c17.99,0,32.573-14.583,32.573-32.573V93.268C467.152,75.279,452.569,60.695,434.58,60.695z"/>
</g>
<g>
	<circle class="st2" cx="334.563" cy="234.539" r="74.002"/>
</g>
<g>
	<path class="st2" d="M205.676,332.478c-10.114,7.151-22.46,11.354-35.789,11.354c-13.329,0-25.675-4.203-35.788-11.354h-13.052
		c-16.355,0-29.613,13.258-29.613,29.613v73.314h77.389h59.599v-68.182h96.405c9.595,0,17.373-7.778,17.373-17.373v0
		c0-9.595-7.778-17.373-17.373-17.373H205.676z"/>
</g>
<g>
	<path class="st1" d="M324.827,332.478h-24.34v34.745h24.34c9.594,0,17.373-7.778,17.373-17.373
		C342.2,340.256,334.422,332.478,324.827,332.478z"/>
</g>
<g>
	<path class="st0" d="M65.42,495h369.159c17.99,0,32.573-14.583,32.573-32.573v-27.023H32.848v27.023
		C32.848,480.417,47.431,495,65.42,495z"/>
</g>
<g>
	<path class="st0" d="M434.58,60.695H65.42c-17.99,0-32.573,14.583-32.573,32.573v27.023h434.305V93.268
		C467.152,75.279,452.569,60.695,434.58,60.695z"/>
</g>
<g>
	<circle class="st1" cx="169.887" cy="281.77" r="62.061"/>
</g>
<g>
	<path class="st1" d="M313.204,205.677V263.4c0,3.426,3.786,5.5,6.673,3.655l45.159-28.861c2.669-1.706,2.669-5.604,0-7.309
		l-45.159-28.861C316.99,200.178,313.204,202.251,313.204,205.677z"/>
</g>
<g>
	<circle class="st2" cx="354.083" cy="464.123" r="12.959"/>
</g>
<path class="st4" d="M324.827,327.478h-105.93c11.187-11.987,18.052-28.057,18.052-45.707c0-36.978-30.084-67.062-67.062-67.062
	s-67.062,30.084-67.062,67.062c0,17.652,6.867,33.724,18.056,45.711c-19.009,0.09-34.448,15.578-34.448,34.608v55.596
	c0,2.762,2.238,5,5,5s5-2.238,5-5V362.09c0-13.571,11.041-24.612,24.612-24.612h11.496c7.259,4.878,15.302,8.232,23.76,9.97
	c0.057,0.012,0.114,0.023,0.171,0.035c2.109,0.428,4.243,0.758,6.398,0.981c0.182,0.019,0.366,0.032,0.549,0.05
	c0.847,0.081,1.697,0.146,2.549,0.195c0.27,0.016,0.539,0.032,0.81,0.044c1.032,0.047,2.067,0.079,3.106,0.079c0,0,0,0,0,0
	c0,0,0,0,0,0c0.001,0,0.002,0,0.002,0c1.038,0,2.071-0.032,3.102-0.079c0.273-0.012,0.545-0.028,0.817-0.045
	c0.849-0.049,1.695-0.113,2.539-0.193c0.186-0.018,0.373-0.032,0.559-0.052c2.153-0.223,4.283-0.553,6.39-0.979
	c0.06-0.013,0.12-0.024,0.181-0.037c8.457-1.738,16.498-5.092,23.755-9.969h88.255v24.745h-67.064c-2.762,0-5,2.238-5,5v50.463
	c0,2.762,2.238,5,5,5s5-2.238,5-5v-45.463h91.405c12.336,0,22.372-10.036,22.372-22.373
	C347.199,337.514,337.163,327.478,324.827,327.478z M169.888,224.709c31.464,0,57.062,25.598,57.062,57.062
	c0,29.417-22.377,53.701-51.003,56.736c-0.204,0.021-0.408,0.04-0.612,0.059c-0.684,0.065-1.373,0.117-2.064,0.158
	c-0.24,0.014-0.48,0.03-0.721,0.041c-0.882,0.04-1.767,0.067-2.659,0.067c-0.001,0-0.002,0-0.003,0c-0.893,0-1.78-0.026-2.664-0.067
	c-0.239-0.011-0.477-0.027-0.716-0.041c-0.693-0.041-1.384-0.093-2.07-0.158c-0.202-0.019-0.404-0.037-0.605-0.058
	c-28.627-3.034-51.006-27.319-51.006-56.737C112.826,250.307,138.424,224.709,169.888,224.709z M324.827,362.223h-19.341v-24.745
	h19.341c6.822,0,12.372,5.55,12.372,12.372S331.649,362.223,324.827,362.223z M191.087,16.534c0-2.762,2.238-5,5-5h6.534V5
	c0-2.762,2.238-5,5-5s5,2.238,5,5v6.534h6.535c2.762,0,5,2.238,5,5s-2.238,5-5,5h-6.535v6.535c0,2.762-2.238,5-5,5s-5-2.238-5-5
	v-6.535h-6.534C193.325,21.534,191.087,19.296,191.087,16.534z M275.924,16.534c0-2.762,2.238-5,5-5h6.535V5c0-2.762,2.238-5,5-5
	s5,2.238,5,5v6.534h6.534c2.762,0,5,2.238,5,5s-2.238,5-5,5h-6.534v6.535c0,2.762-2.238,5-5,5s-5-2.238-5-5v-6.535h-6.535
	C278.162,21.534,275.924,19.296,275.924,16.534z M434.579,55.695H65.421c-20.718,0-37.573,16.854-37.573,37.572v369.159
	c0,20.718,16.855,37.573,37.573,37.573h369.158c20.718,0,37.573-16.855,37.573-37.573V93.268
	C472.152,72.55,455.297,55.695,434.579,55.695z M65.421,65.695h369.158c15.204,0,27.573,12.369,27.573,27.572v337.137H37.848
	V125.291h386.02c2.762,0,5-2.238,5-5s-2.238-5-5-5H37.848V93.268C37.848,78.064,50.217,65.695,65.421,65.695z M434.579,490H65.421
	c-15.204,0-27.573-12.369-27.573-27.573v-22.022h424.305v22.022C462.152,477.631,449.783,490,434.579,490z M68.88,90.493
	c0-2.762,2.238-5,5-5h9.31v10h-9.31C71.118,95.493,68.88,93.255,68.88,90.493z M100.25,90.493c0-2.762,2.238-5,5-5h9.309v10h-9.309
	C102.488,95.493,100.25,93.255,100.25,90.493z M131.619,90.493c0-2.762,2.238-5,5-5h9.31v10h-9.31
	C133.857,95.493,131.619,93.255,131.619,90.493z M437.106,120.291c0-2.762,2.238-5,5-5h5.461c2.762,0,5,2.238,5,5s-2.238,5-5,5
	h-5.461C439.345,125.291,437.106,123.053,437.106,120.291z M132.713,364.39v53.296c0,2.762-2.238,5-5,5s-5-2.238-5-5V364.39
	c0-2.762,2.238-5,5-5S132.713,361.628,132.713,364.39z M334.563,155.537c-43.562,0-79.002,35.44-79.002,79.002
	s35.44,79.001,79.002,79.001s79.002-35.439,79.002-79.001S378.125,155.537,334.563,155.537z M334.563,303.54
	c-38.048,0-69.002-30.954-69.002-69.001c0-38.048,30.954-69.002,69.002-69.002s69.002,30.954,69.002,69.002
	C403.565,272.586,372.611,303.54,334.563,303.54z M367.729,226.671l-45.159-28.861c-2.873-1.836-6.518-1.961-9.514-0.321
	c-2.992,1.639-4.852,4.777-4.852,8.189v57.722c0,3.412,1.859,6.551,4.852,8.189c1.401,0.768,2.945,1.148,4.485,1.148
	c1.751,0,3.499-0.492,5.028-1.47l45.16-28.862c2.697-1.725,4.308-4.665,4.308-7.866
	C372.037,231.337,370.427,228.396,367.729,226.671z M318.204,262.189v-55.302l43.266,27.651L318.204,262.189z M126.136,455.498
	v17.25c0,2.762-2.238,5-5,5s-5-2.238-5-5v-3.625H62.553c-2.762,0-5-2.238-5-5s2.238-5,5-5h53.583v-3.625c0-2.762,2.238-5,5-5
	S126.136,452.736,126.136,455.498z M431.158,459.123h-59.84c-2.172-7.475-9.069-12.959-17.235-12.959s-15.064,5.484-17.236,12.959
	H146.563v-3.625c0-2.762-2.238-5-5-5s-5,2.238-5,5v17.25c0,2.762,2.238,5,5,5s5-2.238,5-5v-3.625h190.283
	c2.172,7.475,9.07,12.959,17.236,12.959s15.063-5.484,17.235-12.959h59.84c2.762,0,5-2.238,5-5S433.92,459.123,431.158,459.123z
	 M354.083,472.082c-4.389,0-7.959-3.57-7.959-7.959s3.57-7.959,7.959-7.959c4.388,0,7.958,3.57,7.958,7.959
	S358.471,472.082,354.083,472.082z M169.888,313.684c6.57,0,12.447-4.165,14.624-10.365c0.915-2.606,3.771-3.977,6.374-3.062
	c2.605,0.915,3.977,3.769,3.062,6.374c-3.581,10.2-13.25,17.053-24.06,17.053c-10.812,0-20.48-6.854-24.06-17.054
	c-0.915-2.605,0.456-5.459,3.063-6.373c2.604-0.918,5.459,0.456,6.373,3.063C157.439,309.519,163.316,313.684,169.888,313.684z
	 M133.535,269.638c-0.915-2.605,0.456-5.459,3.062-6.374c2.605-0.911,5.459,0.456,6.374,3.062c0.563,1.604,2.083,2.681,3.782,2.681
	s3.22-1.077,3.782-2.681c0.915-2.605,3.771-3.973,6.374-3.062c2.605,0.915,3.977,3.769,3.062,6.374
	c-1.967,5.604-7.279,9.368-13.218,9.368S135.502,275.241,133.535,269.638z M179.804,269.638c-0.915-2.605,0.456-5.459,3.062-6.374
	c2.605-0.911,5.459,0.456,6.374,3.062c0.563,1.604,2.083,2.681,3.782,2.681s3.22-1.077,3.782-2.681
	c0.915-2.605,3.771-3.973,6.374-3.062c2.605,0.915,3.977,3.769,3.062,6.374c-1.967,5.604-7.279,9.368-13.218,9.368
	S181.771,275.241,179.804,269.638z"/>
</svg>
